<svg width="24" height="21" viewBox="0 0 24 21" fill="none" xmlns="http://www.w3.org/2000/svg">
<path d="M22.8938 14.8991C22.9913 14.3704 22.9913 13.8304 22.8938 13.3016L23.8612 12.7429C23.9738 12.6791 24.0225 12.5479 23.985 12.4241C23.7337 11.6141 23.3025 10.8791 22.74 10.2716C22.6538 10.1779 22.515 10.1554 22.4025 10.2191L21.435 10.7779C21.0263 10.4291 20.5575 10.1591 20.0513 9.97914V8.86164C20.0513 8.73414 19.9613 8.62164 19.8375 8.59539C19.0013 8.40789 18.15 8.41539 17.355 8.59539C17.2313 8.62164 17.1413 8.73414 17.1413 8.86164V9.97914C16.635 10.1591 16.1663 10.4291 15.7575 10.7779L14.79 10.2191C14.6813 10.1554 14.5388 10.1779 14.4525 10.2716C13.89 10.8791 13.4588 11.6141 13.2075 12.4241C13.17 12.5479 13.2225 12.6791 13.3313 12.7429L14.2987 13.3016C14.2013 13.8304 14.2013 14.3704 14.2987 14.8991L13.3313 15.4579C13.2188 15.5216 13.17 15.6529 13.2075 15.7766C13.4588 16.5866 13.89 17.3179 14.4525 17.9291C14.5388 18.0229 14.6775 18.0454 14.79 17.9816L15.7575 17.4229C16.1663 17.7716 16.635 18.0416 17.1413 18.2216V19.3391C17.1413 19.4666 17.2313 19.5791 17.355 19.6054C18.1912 19.7929 19.0425 19.7854 19.8375 19.6054C19.9613 19.5791 20.0513 19.4666 20.0513 19.3391V18.2216C20.5575 18.0416 21.0263 17.7716 21.435 17.4229L22.4025 17.9816C22.5113 18.0454 22.6538 18.0229 22.74 17.9291C23.3025 17.3216 23.7337 16.5866 23.985 15.7766C24.0225 15.6529 23.97 15.5216 23.8612 15.4579L22.8938 14.8991ZM18.6 15.9191C17.595 15.9191 16.7812 15.1016 16.7812 14.1004C16.7812 13.0991 17.5988 12.2816 18.6 12.2816C19.6013 12.2816 20.4188 13.0991 20.4188 14.1004C20.4188 15.1016 19.605 15.9191 18.6 15.9191ZM8.4 10.5004C11.0513 10.5004 13.2 8.35164 13.2 5.70039C13.2 3.04914 11.0513 0.900391 8.4 0.900391C5.74875 0.900391 3.6 3.04914 3.6 5.70039C3.6 8.35164 5.74875 10.5004 8.4 10.5004ZM15.945 18.9941C15.8588 18.9491 15.7725 18.8966 15.69 18.8479L15.3938 19.0204C15.1688 19.1479 14.9138 19.2191 14.6588 19.2191C14.25 19.2191 13.8563 19.0466 13.575 18.7466C12.8888 18.0041 12.3638 17.1004 12.0675 16.1366C11.8612 15.4729 12.1388 14.7716 12.7388 14.4229L13.035 14.2504C13.0313 14.1529 13.0313 14.0554 13.035 13.9579L12.7388 13.7854C12.1388 13.4404 11.8612 12.7354 12.0675 12.0716C12.1012 11.9629 12.15 11.8541 12.1875 11.7454C12.045 11.7341 11.9063 11.7004 11.76 11.7004H11.1337C10.3013 12.0829 9.375 12.3004 8.4 12.3004C7.425 12.3004 6.5025 12.0829 5.66625 11.7004H5.04C2.2575 11.7004 0 13.9579 0 16.7404V18.3004C0 19.2941 0.80625 20.1004 1.8 20.1004H15C15.3788 20.1004 15.7313 19.9804 16.02 19.7816C15.975 19.6391 15.945 19.4929 15.945 19.3391V18.9941Z" fill="#808080"/>
</svg>
