<svg width="25" height="25" viewBox="0 0 25 25" fill="none" xmlns="http://www.w3.org/2000/svg">
<g clip-path="url(#clip0_1045_2119)">
<path d="M17.9639 16.1016C17.7383 16.3604 17.4863 16.5947 17.1875 16.7681V17.8882C20.4355 18.3442 22.6562 19.2578 22.6562 20.3125C22.6562 21.8228 18.1094 23.0469 12.5 23.0469C6.89062 23.0469 2.34375 21.8228 2.34375 20.3125C2.34375 19.2578 4.56445 18.3447 7.8125 17.8882V16.7681C7.51367 16.5947 7.26172 16.3604 7.03613 16.1016C2.87451 16.8623 0 18.4595 0 20.3125C0 22.9014 5.59668 25 12.5 25C19.4033 25 25 22.9014 25 20.3125C25 18.4595 22.1255 16.8623 17.9639 16.1016ZM12.5 6.25C14.2261 6.25 15.625 4.85107 15.625 3.125C15.625 1.39893 14.2261 0 12.5 0C10.7739 0 9.375 1.39893 9.375 3.125C9.375 4.85107 10.7739 6.25 12.5 6.25ZM9.375 15.625V20.3125C9.375 21.1753 10.0747 21.875 10.9375 21.875H14.0625C14.9253 21.875 15.625 21.1753 15.625 20.3125V15.625C16.4878 15.625 17.1875 14.9253 17.1875 14.0625V9.375C17.1875 8.08057 16.1382 7.03125 14.8438 7.03125H14.2676C13.7271 7.27686 13.1318 7.42188 12.5 7.42188C11.8682 7.42188 11.2729 7.27686 10.7324 7.03125H10.1562C8.86182 7.03125 7.8125 8.08057 7.8125 9.375V14.0625C7.8125 14.9253 8.51221 15.625 9.375 15.625Z" fill="#808080"/>
</g>
<defs>
<clipPath id="clip0_1045_2119">
<rect width="25" height="25" fill="white"/>
</clipPath>
</defs>
</svg>
