<svg width="24" height="17" viewBox="0 0 24 17" fill="none" xmlns="http://www.w3.org/2000/svg">
<path d="M3.6 7.29961C4.92375 7.29961 6 6.22336 6 4.89961C6 3.57586 4.92375 2.49961 3.6 2.49961C2.27625 2.49961 1.2 3.57586 1.2 4.89961C1.2 6.22336 2.27625 7.29961 3.6 7.29961ZM20.4 7.29961C21.7238 7.29961 22.8 6.22336 22.8 4.89961C22.8 3.57586 21.7238 2.49961 20.4 2.49961C19.0763 2.49961 18 3.57586 18 4.89961C18 6.22336 19.0763 7.29961 20.4 7.29961ZM21.6 8.49961H19.2C18.54 8.49961 17.9438 8.76586 17.5088 9.19711C19.02 10.0259 20.0925 11.5221 20.325 13.2996H22.8C23.4638 13.2996 24 12.7634 24 12.0996V10.8996C24 9.57586 22.9238 8.49961 21.6 8.49961ZM12 8.49961C14.3213 8.49961 16.2 6.62086 16.2 4.29961C16.2 1.97836 14.3213 0.0996094 12 0.0996094C9.67875 0.0996094 7.8 1.97836 7.8 4.29961C7.8 6.62086 9.67875 8.49961 12 8.49961ZM14.88 9.69961H14.5688C13.7888 10.0746 12.9225 10.2996 12 10.2996C11.0775 10.2996 10.215 10.0746 9.43125 9.69961H9.12C6.735 9.69961 4.8 11.6346 4.8 14.0196V15.0996C4.8 16.0934 5.60625 16.8996 6.6 16.8996H17.4C18.3938 16.8996 19.2 16.0934 19.2 15.0996V14.0196C19.2 11.6346 17.265 9.69961 14.88 9.69961ZM6.49125 9.19711C6.05625 8.76586 5.46 8.49961 4.8 8.49961H2.4C1.07625 8.49961 0 9.57586 0 10.8996V12.0996C0 12.7634 0.53625 13.2996 1.2 13.2996H3.67125C3.9075 11.5221 4.98 10.0259 6.49125 9.19711Z" fill="#808080"/>
</svg>
