<svg width="24" height="25" viewBox="0 0 24 25" fill="none" xmlns="http://www.w3.org/2000/svg">
<path d="M11.625 0.875C5.20312 0.875 0 6.07812 0 12.5C0 18.9219 5.20312 24.125 11.625 24.125C18.0469 24.125 23.25 18.9219 23.25 12.5C23.25 6.07812 18.0469 0.875 11.625 0.875ZM18.375 13.8125C18.375 14.1219 18.1219 14.375 17.8125 14.375H13.5V18.6875C13.5 18.9969 13.2469 19.25 12.9375 19.25H10.3125C10.0031 19.25 9.75 18.9969 9.75 18.6875V14.375H5.4375C5.12813 14.375 4.875 14.1219 4.875 13.8125V11.1875C4.875 10.8781 5.12813 10.625 5.4375 10.625H9.75V6.3125C9.75 6.00313 10.0031 5.75 10.3125 5.75H12.9375C13.2469 5.75 13.5 6.00313 13.5 6.3125V10.625H17.8125C18.1219 10.625 18.375 10.8781 18.375 11.1875V13.8125Z" fill="#353434"/>
</svg>
