<svg width="24" height="21" viewBox="0 0 24 21" fill="none" xmlns="http://www.w3.org/2000/svg">
<path d="M23.3363 11.0666L19.0163 9.37914C18.8625 9.31914 18.5438 9.24039 18.1838 9.37914L13.8638 11.0666C13.4625 11.2241 13.2 11.5916 13.2 12.0004C13.2 16.1854 15.7763 19.0804 18.1838 20.0216C18.5438 20.1604 18.8588 20.0816 19.0163 20.0216C20.94 19.2716 24 16.6691 24 12.0004C24 11.5916 23.7375 11.2241 23.3363 11.0666ZM18.6 18.2404V11.1491L22.1813 12.5479C21.9713 15.8141 19.8975 17.6254 18.6 18.2404ZM8.4 10.5004C11.0513 10.5004 13.2 8.35164 13.2 5.70039C13.2 3.04914 11.0513 0.900391 8.4 0.900391C5.74875 0.900391 3.6 3.04914 3.6 5.70039C3.6 8.35164 5.74875 10.5004 8.4 10.5004ZM12 12.0004C12 11.9066 12.03 11.8204 12.0413 11.7304C11.9475 11.7266 11.8575 11.7004 11.76 11.7004H11.1337C10.3013 12.0829 9.375 12.3004 8.4 12.3004C7.425 12.3004 6.5025 12.0829 5.66625 11.7004H5.04C2.2575 11.7004 0 13.9579 0 16.7404V18.3004C0 19.2941 0.80625 20.1004 1.8 20.1004H15C15.255 20.1004 15.4988 20.0441 15.72 19.9504C13.695 18.3416 12 15.5741 12 12.0004Z" fill="#808080"/>
</svg>
