<svg width="48" height="48" viewBox="0 0 48 48" fill="none" xmlns="http://www.w3.org/2000/svg">
<circle cx="24" cy="24" r="24" fill="#034EA1"/>
<path d="M23.6827 19.8421L16.0006 26.1692V32.9979C16.0006 33.1747 16.0709 33.3443 16.1959 33.4693C16.3209 33.5943 16.4905 33.6646 16.6673 33.6646L21.3365 33.6525C21.5127 33.6516 21.6814 33.581 21.8057 33.4561C21.93 33.3311 21.9998 33.1621 21.9998 32.9858V28.9979C21.9998 28.8211 22.07 28.6515 22.1951 28.5265C22.3201 28.4015 22.4896 28.3312 22.6665 28.3312H25.3331C25.5099 28.3312 25.6795 28.4015 25.8045 28.5265C25.9296 28.6515 25.9998 28.8211 25.9998 28.9979V32.9829C25.9995 33.0706 26.0166 33.1576 26.0499 33.2387C26.0833 33.3198 26.1324 33.3935 26.1943 33.4557C26.2562 33.5178 26.3298 33.5671 26.4109 33.6007C26.4919 33.6344 26.5787 33.6517 26.6665 33.6517L31.334 33.6646C31.5108 33.6646 31.6803 33.5943 31.8054 33.4693C31.9304 33.3443 32.0006 33.1747 32.0006 32.9979V26.1646L24.3202 19.8421C24.2299 19.7693 24.1174 19.7296 24.0015 19.7296C23.8855 19.7296 23.773 19.7693 23.6827 19.8421ZM35.8173 24.1425L32.334 21.2712V15.5C32.334 15.3674 32.2813 15.2402 32.1875 15.1464C32.0937 15.0527 31.9666 15 31.834 15H29.5006C29.368 15 29.2408 15.0527 29.1471 15.1464C29.0533 15.2402 29.0006 15.3674 29.0006 15.5V18.5254L25.2702 15.4563C24.9122 15.1617 24.463 15.0006 23.9994 15.0006C23.5358 15.0006 23.0865 15.1617 22.7285 15.4563L12.1815 24.1425C12.1308 24.1843 12.0889 24.2358 12.0582 24.2938C12.0274 24.3518 12.0084 24.4154 12.0022 24.4808C11.996 24.5462 12.0028 24.6121 12.0221 24.6749C12.0414 24.7377 12.0729 24.7961 12.1148 24.8467L13.1773 26.1383C13.2191 26.1891 13.2704 26.2312 13.3285 26.2621C13.3865 26.293 13.45 26.3121 13.5155 26.3184C13.5809 26.3247 13.647 26.3181 13.7099 26.2988C13.7727 26.2796 13.8312 26.2481 13.8819 26.2062L23.6827 18.1338C23.773 18.061 23.8855 18.0213 24.0015 18.0213C24.1174 18.0213 24.2299 18.061 24.3202 18.1338L34.1215 26.2062C34.1721 26.2481 34.2304 26.2796 34.2932 26.2989C34.356 26.3183 34.422 26.325 34.4874 26.3188C34.5527 26.3126 34.6163 26.2936 34.6743 26.2629C34.7324 26.2321 34.7838 26.1902 34.8256 26.1396L35.8881 24.8479C35.93 24.797 35.9613 24.7384 35.9804 24.6753C35.9995 24.6122 36.0059 24.546 35.9993 24.4805C35.9928 24.4149 35.9733 24.3513 35.942 24.2933C35.9108 24.2353 35.8684 24.1841 35.8173 24.1425Z" fill="white"/>
</svg>
