<svg width="24" height="24" viewBox="0 0 24 24" fill="none" xmlns="http://www.w3.org/2000/svg">
<circle cx="12" cy="12" r="12" fill="white"/>
<path d="M11.6582 9.17875C9.90689 9.17875 8.49431 10.5916 8.49431 12.3433C8.49431 14.095 9.90689 15.5079 11.6582 15.5079C13.4094 15.5079 14.822 14.095 14.822 12.3433C14.822 10.5916 13.4094 9.17875 11.6582 9.17875ZM11.6582 14.4007C10.5264 14.4007 9.60124 13.478 9.60124 12.3433C9.60124 11.2086 10.5237 10.2859 11.6582 10.2859C12.7926 10.2859 13.7151 11.2086 13.7151 12.3433C13.7151 13.478 12.7899 14.4007 11.6582 14.4007ZM15.6894 9.0493C15.6894 9.45968 15.3589 9.78742 14.9514 9.78742C14.5411 9.78742 14.2135 9.45692 14.2135 9.0493C14.2135 8.64169 14.5439 8.31118 14.9514 8.31118C15.3589 8.31118 15.6894 8.64169 15.6894 9.0493ZM17.7848 9.79844C17.738 8.80969 17.5122 7.93386 16.788 7.21227C16.0666 6.49067 15.191 6.26483 14.2025 6.21525C13.1836 6.15742 10.1299 6.15742 9.11111 6.21525C8.12533 6.26207 7.2497 6.48792 6.52551 7.20951C5.80132 7.93111 5.57828 8.80694 5.52872 9.79569C5.4709 10.8147 5.4709 13.8691 5.52872 14.8882C5.57553 15.8769 5.80132 16.7527 6.52551 17.4743C7.2497 18.1959 8.12258 18.4218 9.11111 18.4714C10.1299 18.5292 13.1836 18.5292 14.2025 18.4714C15.191 18.4245 16.0666 18.1987 16.788 17.4743C17.5095 16.7527 17.7353 15.8769 17.7848 14.8882C17.8427 13.8691 17.8427 10.8175 17.7848 9.79844ZM16.4686 15.9816C16.2539 16.5214 15.8381 16.9373 15.2956 17.1549C14.4833 17.4771 12.5558 17.4027 11.6582 17.4027C10.7605 17.4027 8.83025 17.4743 8.0207 17.1549C7.481 16.94 7.06521 16.5241 6.84768 15.9816C6.52551 15.1691 6.59986 13.2412 6.59986 12.3433C6.59986 11.4454 6.52826 9.51476 6.84768 8.70503C7.06246 8.16521 7.47824 7.74933 8.0207 7.53175C8.833 7.20951 10.7605 7.28387 11.6582 7.28387C12.5558 7.28387 14.4861 7.21227 15.2956 7.53175C15.8353 7.74658 16.2511 8.16246 16.4686 8.70503C16.7908 9.51751 16.7165 11.4454 16.7165 12.3433C16.7165 13.2412 16.7908 15.1718 16.4686 15.9816Z" fill="black"/>
</svg>
