<svg width="24" height="24" viewBox="0 0 24 24" fill="none" xmlns="http://www.w3.org/2000/svg">
<circle cx="12" cy="12" r="12" fill="white"/>
<path d="M9.69183 15.7719H7.70154V9.36245H9.69183V15.7719ZM8.69561 8.48814C8.05918 8.48814 7.54297 7.96099 7.54297 7.32454C7.54297 7.01884 7.66441 6.72565 7.88057 6.50948C8.09673 6.29332 8.38991 6.17188 8.69561 6.17188C9.00131 6.17188 9.29449 6.29332 9.51065 6.50948C9.72682 6.72565 9.84825 7.01884 9.84825 7.32454C9.84825 7.96099 9.33183 8.48814 8.69561 8.48814ZM17.1408 15.7719H15.1548V12.6518C15.1548 11.9082 15.1398 10.9546 14.12 10.9546C13.0853 10.9546 12.9267 11.7625 12.9267 12.5982V15.7719H10.9385V9.36245H12.8474V10.2368H12.8753C13.141 9.73317 13.79 9.20173 14.7584 9.20173C16.7727 9.20173 17.143 10.5282 17.143 12.2511V15.7719H17.1408Z" fill="black"/>
</svg>
