<svg width="20" height="21" viewBox="0 0 20 21" fill="none" xmlns="http://www.w3.org/2000/svg">
<path d="M19.2524 16.344L10.0414 20.9293C9.93281 20.976 9.81583 21 9.69762 21C9.5794 21 9.46242 20.976 9.35379 20.9293L0.142383 16.344C-0.0451172 16.2503 -0.0451172 16.0965 0.142383 16.0023L2.34832 14.9064C2.45712 14.8598 2.57425 14.8357 2.69262 14.8357C2.81098 14.8357 2.92812 14.8598 3.03691 14.9064L9.35379 18.047C9.46236 18.0939 9.57936 18.118 9.69762 18.118C9.81587 18.118 9.93287 18.0939 10.0414 18.047L16.3583 14.9064C16.467 14.8597 16.5841 14.8357 16.7024 14.8357C16.8207 14.8357 16.9377 14.8597 17.0464 14.9064L19.2524 16.0047C19.4422 16.0965 19.4422 16.2503 19.2524 16.344ZM19.2524 9.94419L17.0464 8.84591C16.9377 8.79928 16.8207 8.77523 16.7024 8.77523C16.5841 8.77523 16.467 8.79928 16.3583 8.84591L10.0414 11.9903C9.93276 12.0367 9.8158 12.0606 9.69762 12.0606C9.57944 12.0606 9.46248 12.0367 9.35379 11.9903L3.03691 8.84591C2.92812 8.79929 2.81098 8.77525 2.69262 8.77525C2.57425 8.77525 2.45712 8.79929 2.34832 8.84591L0.142383 9.94419C-0.0451172 10.0379 -0.0451172 10.1922 0.142383 10.2868L9.35379 14.8712C9.46242 14.9178 9.5794 14.9419 9.69762 14.9419C9.81583 14.9419 9.93281 14.9178 10.0414 14.8712L19.2524 10.2868C19.4422 10.1922 19.4422 10.0384 19.2524 9.94419ZM0.142383 4.61356L9.35332 8.84591C9.57434 8.93263 9.81996 8.93263 10.041 8.84591L19.2524 4.61356C19.4399 4.52637 19.4399 4.38434 19.2524 4.29762L10.041 0.0657496C9.82014 -0.0219165 9.57416 -0.0219165 9.35332 0.0657496L0.142383 4.29762C-0.0474609 4.38434 -0.0474609 4.52637 0.142383 4.61356Z" fill="#808080"/>
</svg>
