<svg width="24" height="24" viewBox="0 0 24 24" fill="none" xmlns="http://www.w3.org/2000/svg">
<circle cx="12" cy="12" r="12" fill="white"/>
<path d="M17.246 10.621C17.2539 10.726 17.2539 10.831 17.2539 10.936C17.2539 14.1385 14.7085 17.8285 10.0564 17.8285C8.62322 17.8285 7.29182 17.431 6.17188 16.741C6.37551 16.7635 6.57128 16.771 6.78275 16.771C7.96533 16.771 9.05397 16.3885 9.9233 15.736C8.81118 15.7135 7.8792 15.016 7.55809 14.056C7.71474 14.0785 7.87136 14.0935 8.03585 14.0935C8.26296 14.0935 8.4901 14.0635 8.70154 14.011C7.54244 13.786 6.67309 12.811 6.67309 11.6335V11.6035C7.00984 11.7835 7.40146 11.896 7.81652 11.911C7.13515 11.476 6.68876 10.7335 6.68876 9.8935C6.68876 9.44351 6.81404 9.03101 7.03335 8.671C8.27861 10.141 10.1504 11.101 12.2493 11.206C12.2102 11.026 12.1867 10.8385 12.1867 10.651C12.1867 9.316 13.3144 8.22852 14.7163 8.22852C15.4447 8.22852 16.1025 8.52101 16.5646 8.99352C17.1363 8.88852 17.6846 8.68601 18.1701 8.40852C17.9822 8.97103 17.5827 9.44353 17.058 9.74351C17.5671 9.69103 18.0605 9.556 18.5147 9.36852C18.1702 9.8485 17.7394 10.276 17.246 10.621Z" fill="black"/>
</svg>
