<svg width="23" height="17" viewBox="0 0 23 17" fill="none" xmlns="http://www.w3.org/2000/svg">
<path d="M22.8611 7.86664C20.6956 3.2742 16.4087 0.166992 11.5 0.166992C6.59133 0.166992 2.30318 3.27637 0.138937 7.86708C0.0475922 8.06348 0 8.28047 0 8.50054C0 8.72061 0.0475922 8.9376 0.138937 9.13401C2.30437 13.7265 6.59133 16.8337 11.5 16.8337C16.4087 16.8337 20.6968 13.7243 22.8611 9.13357C22.9524 8.93717 23 8.72018 23 8.50011C23 8.28004 22.9524 8.06305 22.8611 7.86664ZM11.5 14.7503C10.3628 14.7503 9.25105 14.3838 8.30546 13.697C7.35988 13.0103 6.62289 12.0341 6.18768 10.8921C5.75248 9.75006 5.63861 8.49339 5.86047 7.28101C6.08234 6.06863 6.62997 4.95499 7.43413 4.08091C8.23828 3.20683 9.26283 2.61158 10.3782 2.37042C11.4936 2.12926 12.6498 2.25303 13.7004 2.72608C14.7511 3.19913 15.6491 4.0002 16.281 5.02801C16.9128 6.05582 17.25 7.26419 17.25 8.50033C17.2504 9.3212 17.1019 10.1341 16.8131 10.8926C16.5242 11.651 16.1007 12.3402 15.5667 12.9206C15.0327 13.5011 14.3987 13.9614 13.7009 14.2754C13.0031 14.5893 12.2552 14.7507 11.5 14.7503ZM11.5 4.33366C11.1578 4.33886 10.8179 4.39419 10.4894 4.49816C10.7602 4.89819 10.8901 5.39047 10.8557 5.88572C10.8212 6.38097 10.6246 6.8464 10.3015 7.19759C9.97838 7.54879 9.55019 7.7625 9.09456 7.79996C8.63892 7.83743 8.18603 7.69617 7.818 7.4018C7.60843 8.24103 7.64626 9.13057 7.92616 9.9452C8.20607 10.7598 8.71395 11.4586 9.37833 11.943C10.0427 12.4275 10.8301 12.6733 11.6298 12.6458C12.4294 12.6184 13.201 12.319 13.8359 11.79C14.4708 11.2609 14.9371 10.5287 15.1692 9.6965C15.4012 8.86428 15.3873 7.97393 15.1294 7.15075C14.8715 6.32757 14.3826 5.61302 13.7316 5.10766C13.0805 4.60231 12.3 4.33161 11.5 4.33366Z" fill="#808080"/>
</svg>
